<mxfile host="app.diagrams.net" modified="2024-01-29T06:26:40.226Z" agent="Mozilla/5.0 (Windows NT 10.0; Win64; x64) AppleWebKit/537.36 (KHTML, like Gecko) Chrome/120.0.0.0 Safari/537.36 OPR/106.0.0.0" etag="zsb5sKt71OkiuTjZmxJO" version="23.0.2" type="device">
  <diagram name="PÃ¡gina-1" id="3Deig92EBqLAMkpL4zrJ">
    <mxGraphModel dx="3145" dy="2432" grid="1" gridSize="10" guides="1" tooltips="1" connect="1" arrows="1" fold="1" page="1" pageScale="1" pageWidth="827" pageHeight="1169" background="#FFFFFF" math="0" shadow="0">
      <root>
        <mxCell id="0" />
        <mxCell id="1" parent="0" />
        <mxCell id="WYVrjqTcu7dz_fImMJw4-139" value="" style="rounded=1;arcSize=10;dashed=0;fillColor=#ffe6cc;strokeWidth=2;container=0;strokeColor=#d79b00;" vertex="1" parent="1">
          <mxGeometry x="-800" y="-1031" width="870" height="1140" as="geometry" />
        </mxCell>
        <mxCell id="WYVrjqTcu7dz_fImMJw4-140" value="" style="dashed=0;html=1;shape=mxgraph.aws3.cloud;fillColor=#F58536;gradientColor=none;dashed=0;container=0;" vertex="1" parent="1">
          <mxGeometry x="-790" y="-1051" width="52" height="36" as="geometry" />
        </mxCell>
        <mxCell id="WYVrjqTcu7dz_fImMJw4-200" value="" style="group;verticalAlign=top;labelPosition=center;verticalLabelPosition=bottom;align=center;" vertex="1" connectable="0" parent="1">
          <mxGeometry x="-710" y="-941" width="740" height="1000" as="geometry" />
        </mxCell>
        <mxCell id="WYVrjqTcu7dz_fImMJw4-146" value="&lt;b&gt;us-east-1&lt;/b&gt;" style="sketch=0;outlineConnect=0;html=1;whiteSpace=wrap;fontSize=12;fontStyle=0;shape=mxgraph.aws4.group;grIcon=mxgraph.aws4.group_region;strokeColor=#82b366;fillColor=#d5e8d4;verticalAlign=top;align=left;spacingLeft=30;dashed=1;container=0;" vertex="1" parent="WYVrjqTcu7dz_fImMJw4-200">
          <mxGeometry x="-50" y="-50" width="790" height="1050" as="geometry" />
        </mxCell>
        <mxCell id="WYVrjqTcu7dz_fImMJw4-149" value="" style="rounded=1;arcSize=10;dashed=0;fillColor=none;gradientColor=none;strokeWidth=2;container=0;strokeColor=#FF8000;" vertex="1" parent="WYVrjqTcu7dz_fImMJw4-200">
          <mxGeometry y="170" width="650" height="570" as="geometry" />
        </mxCell>
        <mxCell id="WYVrjqTcu7dz_fImMJw4-152" value="Amazon EKS" style="sketch=0;outlineConnect=0;fontColor=#232F3E;gradientColor=none;strokeColor=#ffffff;fillColor=#232F3E;dashed=0;verticalLabelPosition=middle;verticalAlign=bottom;align=center;html=1;whiteSpace=wrap;fontSize=10;fontStyle=1;spacing=3;shape=mxgraph.aws4.productIcon;prIcon=mxgraph.aws4.eks;container=0;" vertex="1" parent="WYVrjqTcu7dz_fImMJw4-200">
          <mxGeometry x="20" y="140" width="56" height="70" as="geometry" />
        </mxCell>
        <mxCell id="WYVrjqTcu7dz_fImMJw4-148" value="Amazon API Gateway" style="sketch=0;outlineConnect=0;fontColor=#232F3E;gradientColor=none;strokeColor=#ffffff;fillColor=#232F3E;dashed=0;verticalLabelPosition=middle;verticalAlign=bottom;align=center;html=1;whiteSpace=wrap;fontSize=10;fontStyle=1;spacing=3;shape=mxgraph.aws4.productIcon;prIcon=mxgraph.aws4.api_gateway;container=0;" vertex="1" parent="WYVrjqTcu7dz_fImMJw4-200">
          <mxGeometry x="261.66999999999996" width="80" height="110" as="geometry" />
        </mxCell>
        <mxCell id="WYVrjqTcu7dz_fImMJw4-154" value="" style="rounded=1;arcSize=0;dashed=0;fillColor=#dae8fc;strokeWidth=2;container=0;strokeColor=#6c8ebf;" vertex="1" parent="WYVrjqTcu7dz_fImMJw4-200">
          <mxGeometry x="40" y="260" width="540" height="450" as="geometry" />
        </mxCell>
        <mxCell id="WYVrjqTcu7dz_fImMJw4-155" value="&lt;b&gt;&lt;font color=&quot;#4f688c&quot;&gt;Private Subnet&lt;/font&gt;&lt;/b&gt;" style="dashed=0;html=1;shape=mxgraph.aws3.permissions;fillColor=#D9A741;gradientColor=none;dashed=0;labelPosition=right;verticalLabelPosition=bottom;align=left;verticalAlign=top;spacingBottom=0;spacingTop=-20;container=0;" vertex="1" parent="WYVrjqTcu7dz_fImMJw4-200">
          <mxGeometry x="60" y="240" width="30" height="35" as="geometry" />
        </mxCell>
        <mxCell id="WYVrjqTcu7dz_fImMJw4-162" value="&lt;b&gt;Autoscaling&lt;/b&gt;" style="sketch=0;outlineConnect=0;fontColor=#232F3E;gradientColor=none;fillColor=#ED7100;strokeColor=none;dashed=0;verticalLabelPosition=middle;verticalAlign=middle;align=left;html=1;fontSize=12;fontStyle=0;aspect=fixed;pointerEvents=1;shape=mxgraph.aws4.auto_scaling2;labelPosition=right;container=0;" vertex="1" parent="WYVrjqTcu7dz_fImMJw4-200">
          <mxGeometry x="60" y="455" width="60" height="60" as="geometry" />
        </mxCell>
        <mxCell id="WYVrjqTcu7dz_fImMJw4-163" value="minReplicas: 1&#xa;maxReplicas: 4&#xa;resource.name: cpu&#xa;resource.target.type: Utilization&#xa;resource.target.averageUtilization: 40" style="rounded=1;arcSize=10;dashed=1;fillColor=none;gradientColor=none;strokeWidth=2;align=left;verticalAlign=bottom;spacingBottom=10;spacingLeft=8;container=0;strokeColor=#FF8000;" vertex="1" parent="WYVrjqTcu7dz_fImMJw4-200">
          <mxGeometry x="60" y="470" width="500" height="220" as="geometry" />
        </mxCell>
        <mxCell id="WYVrjqTcu7dz_fImMJw4-161" value="" style="aspect=fixed;sketch=0;html=1;dashed=0;whitespace=wrap;fillColor=#2875E2;strokeColor=#ffffff;points=[[0.005,0.63,0],[0.1,0.2,0],[0.9,0.2,0],[0.5,0,0],[0.995,0.63,0],[0.72,0.99,0],[0.5,1,0],[0.28,0.99,0]];shape=mxgraph.kubernetes.icon2;kubernetesLabel=1;prIcon=pod;container=0;" vertex="1" parent="WYVrjqTcu7dz_fImMJw4-200">
          <mxGeometry x="100" y="495.5" width="92.72" height="89" as="geometry" />
        </mxCell>
        <mxCell id="WYVrjqTcu7dz_fImMJw4-177" value="" style="aspect=fixed;sketch=0;html=1;dashed=0;whitespace=wrap;fillColor=#2875E2;strokeColor=#ffffff;points=[[0.005,0.63,0],[0.1,0.2,0],[0.9,0.2,0],[0.5,0,0],[0.995,0.63,0],[0.72,0.99,0],[0.5,1,0],[0.28,0.99,0]];shape=mxgraph.kubernetes.icon2;kubernetesLabel=1;prIcon=pod;container=0;" vertex="1" parent="WYVrjqTcu7dz_fImMJw4-200">
          <mxGeometry x="210" y="495.5" width="92.72" height="89" as="geometry" />
        </mxCell>
        <mxCell id="WYVrjqTcu7dz_fImMJw4-178" value="" style="aspect=fixed;sketch=0;html=1;dashed=0;whitespace=wrap;fillColor=#2875E2;strokeColor=#ffffff;points=[[0.005,0.63,0],[0.1,0.2,0],[0.9,0.2,0],[0.5,0,0],[0.995,0.63,0],[0.72,0.99,0],[0.5,1,0],[0.28,0.99,0]];shape=mxgraph.kubernetes.icon2;kubernetesLabel=1;prIcon=pod;container=0;" vertex="1" parent="WYVrjqTcu7dz_fImMJw4-200">
          <mxGeometry x="317.74" y="495.5" width="92.72" height="89" as="geometry" />
        </mxCell>
        <mxCell id="WYVrjqTcu7dz_fImMJw4-179" value="" style="aspect=fixed;sketch=0;html=1;dashed=0;whitespace=wrap;fillColor=#2875E2;strokeColor=#ffffff;points=[[0.005,0.63,0],[0.1,0.2,0],[0.9,0.2,0],[0.5,0,0],[0.995,0.63,0],[0.72,0.99,0],[0.5,1,0],[0.28,0.99,0]];shape=mxgraph.kubernetes.icon2;kubernetesLabel=1;prIcon=pod;container=0;" vertex="1" parent="WYVrjqTcu7dz_fImMJw4-200">
          <mxGeometry x="430" y="495.5" width="92.72" height="89" as="geometry" />
        </mxCell>
        <mxCell id="WYVrjqTcu7dz_fImMJw4-180" style="edgeStyle=orthogonalEdgeStyle;rounded=0;orthogonalLoop=1;jettySize=auto;html=1;exitX=0.5;exitY=1;exitDx=0;exitDy=0;exitPerimeter=0;entryX=0.5;entryY=0;entryDx=0;entryDy=0;entryPerimeter=0;" edge="1" parent="WYVrjqTcu7dz_fImMJw4-200" source="WYVrjqTcu7dz_fImMJw4-157" target="WYVrjqTcu7dz_fImMJw4-161">
          <mxGeometry relative="1" as="geometry" />
        </mxCell>
        <mxCell id="WYVrjqTcu7dz_fImMJw4-181" style="edgeStyle=orthogonalEdgeStyle;rounded=0;orthogonalLoop=1;jettySize=auto;html=1;exitX=0.5;exitY=1;exitDx=0;exitDy=0;exitPerimeter=0;entryX=0.5;entryY=0;entryDx=0;entryDy=0;entryPerimeter=0;" edge="1" parent="WYVrjqTcu7dz_fImMJw4-200" source="WYVrjqTcu7dz_fImMJw4-157" target="WYVrjqTcu7dz_fImMJw4-177">
          <mxGeometry relative="1" as="geometry" />
        </mxCell>
        <mxCell id="WYVrjqTcu7dz_fImMJw4-182" style="edgeStyle=orthogonalEdgeStyle;rounded=0;orthogonalLoop=1;jettySize=auto;html=1;exitX=0.5;exitY=1;exitDx=0;exitDy=0;exitPerimeter=0;" edge="1" parent="WYVrjqTcu7dz_fImMJw4-200" source="WYVrjqTcu7dz_fImMJw4-157" target="WYVrjqTcu7dz_fImMJw4-178">
          <mxGeometry relative="1" as="geometry" />
        </mxCell>
        <mxCell id="WYVrjqTcu7dz_fImMJw4-183" style="edgeStyle=orthogonalEdgeStyle;rounded=0;orthogonalLoop=1;jettySize=auto;html=1;exitX=0.5;exitY=1;exitDx=0;exitDy=0;exitPerimeter=0;entryX=0.5;entryY=0;entryDx=0;entryDy=0;entryPerimeter=0;" edge="1" parent="WYVrjqTcu7dz_fImMJw4-200" source="WYVrjqTcu7dz_fImMJw4-157" target="WYVrjqTcu7dz_fImMJw4-179">
          <mxGeometry relative="1" as="geometry" />
        </mxCell>
        <mxCell id="WYVrjqTcu7dz_fImMJw4-157" value="" style="aspect=fixed;sketch=0;html=1;dashed=0;whitespace=wrap;fillColor=#2875E2;strokeColor=#ffffff;points=[[0.005,0.63,0],[0.1,0.2,0],[0.9,0.2,0],[0.5,0,0],[0.995,0.63,0],[0.72,0.99,0],[0.5,1,0],[0.28,0.99,0]];shape=mxgraph.kubernetes.icon2;kubernetesLabel=1;prIcon=svc;container=0;" vertex="1" parent="WYVrjqTcu7dz_fImMJw4-200">
          <mxGeometry x="260" y="310" width="83.33" height="80" as="geometry" />
        </mxCell>
        <mxCell id="WYVrjqTcu7dz_fImMJw4-159" value="8085:32001" style="rounded=1;whiteSpace=wrap;html=1;arcSize=0;fillColor=#ffcc99;strokeColor=#36393d;container=0;" vertex="1" parent="WYVrjqTcu7dz_fImMJw4-200">
          <mxGeometry x="330" y="310" width="80" height="30" as="geometry" />
        </mxCell>
        <mxCell id="WYVrjqTcu7dz_fImMJw4-187" value="" style="rounded=1;arcSize=0;dashed=0;fillColor=#dae8fc;strokeWidth=2;container=0;strokeColor=#6c8ebf;" vertex="1" parent="WYVrjqTcu7dz_fImMJw4-200">
          <mxGeometry x="40" y="779" width="540" height="171" as="geometry" />
        </mxCell>
        <mxCell id="WYVrjqTcu7dz_fImMJw4-188" value="&lt;b&gt;&lt;font color=&quot;#4f688c&quot;&gt;Private Subnet&lt;/font&gt;&lt;/b&gt;" style="dashed=0;html=1;shape=mxgraph.aws3.permissions;fillColor=#D9A741;gradientColor=none;dashed=0;labelPosition=right;verticalLabelPosition=bottom;align=left;verticalAlign=top;spacingBottom=0;spacingTop=-20;container=0;" vertex="1" parent="WYVrjqTcu7dz_fImMJw4-200">
          <mxGeometry x="60" y="760" width="30" height="35" as="geometry" />
        </mxCell>
        <mxCell id="WYVrjqTcu7dz_fImMJw4-195" value="&lt;b&gt;RDS - Postgres&lt;/b&gt;" style="outlineConnect=0;dashed=0;verticalLabelPosition=bottom;verticalAlign=top;align=center;html=1;shape=mxgraph.aws3.rds;fillColor=#2E73B8;gradientColor=none;container=0;" vertex="1" parent="WYVrjqTcu7dz_fImMJw4-200">
          <mxGeometry x="274" y="820" width="72" height="81" as="geometry" />
        </mxCell>
        <mxCell id="WYVrjqTcu7dz_fImMJw4-196" style="edgeStyle=orthogonalEdgeStyle;rounded=0;orthogonalLoop=1;jettySize=auto;html=1;exitX=0.5;exitY=1;exitDx=0;exitDy=0;exitPerimeter=0;" edge="1" parent="WYVrjqTcu7dz_fImMJw4-200" source="WYVrjqTcu7dz_fImMJw4-161" target="WYVrjqTcu7dz_fImMJw4-195">
          <mxGeometry relative="1" as="geometry">
            <Array as="points">
              <mxPoint x="146" y="610" />
              <mxPoint x="310" y="610" />
            </Array>
          </mxGeometry>
        </mxCell>
        <mxCell id="WYVrjqTcu7dz_fImMJw4-197" style="edgeStyle=orthogonalEdgeStyle;rounded=0;orthogonalLoop=1;jettySize=auto;html=1;exitX=0.5;exitY=1;exitDx=0;exitDy=0;exitPerimeter=0;entryX=0.5;entryY=0;entryDx=0;entryDy=0;entryPerimeter=0;" edge="1" parent="WYVrjqTcu7dz_fImMJw4-200" source="WYVrjqTcu7dz_fImMJw4-177" target="WYVrjqTcu7dz_fImMJw4-195">
          <mxGeometry relative="1" as="geometry">
            <Array as="points">
              <mxPoint x="256" y="610" />
              <mxPoint x="310" y="610" />
            </Array>
          </mxGeometry>
        </mxCell>
        <mxCell id="WYVrjqTcu7dz_fImMJw4-199" style="edgeStyle=orthogonalEdgeStyle;rounded=0;orthogonalLoop=1;jettySize=auto;html=1;exitX=0.5;exitY=1;exitDx=0;exitDy=0;exitPerimeter=0;" edge="1" parent="WYVrjqTcu7dz_fImMJw4-200" source="WYVrjqTcu7dz_fImMJw4-179" target="WYVrjqTcu7dz_fImMJw4-195">
          <mxGeometry relative="1" as="geometry">
            <Array as="points">
              <mxPoint x="476" y="610" />
              <mxPoint x="310" y="610" />
            </Array>
          </mxGeometry>
        </mxCell>
        <mxCell id="WYVrjqTcu7dz_fImMJw4-198" style="edgeStyle=orthogonalEdgeStyle;rounded=0;orthogonalLoop=1;jettySize=auto;html=1;exitX=0.5;exitY=1;exitDx=0;exitDy=0;exitPerimeter=0;entryX=0.5;entryY=0;entryDx=0;entryDy=0;entryPerimeter=0;" edge="1" parent="WYVrjqTcu7dz_fImMJw4-200" source="WYVrjqTcu7dz_fImMJw4-178" target="WYVrjqTcu7dz_fImMJw4-195">
          <mxGeometry relative="1" as="geometry">
            <Array as="points">
              <mxPoint x="364" y="610" />
              <mxPoint x="310" y="610" />
            </Array>
          </mxGeometry>
        </mxCell>
        <mxCell id="WYVrjqTcu7dz_fImMJw4-203" value="&lt;b&gt;BFF&lt;/b&gt;" style="aspect=fixed;sketch=0;html=1;dashed=0;whitespace=wrap;fillColor=#2875E2;strokeColor=#ffffff;points=[[0.005,0.63,0],[0.1,0.2,0],[0.9,0.2,0],[0.5,0,0],[0.995,0.63,0],[0.72,0.99,0],[0.5,1,0],[0.28,0.99,0]];shape=mxgraph.kubernetes.icon2;prIcon=api;labelPosition=center;verticalLabelPosition=bottom;align=center;verticalAlign=top;" vertex="1" parent="WYVrjqTcu7dz_fImMJw4-200">
          <mxGeometry x="451.36" y="337" width="50" height="48" as="geometry" />
        </mxCell>
        <mxCell id="WYVrjqTcu7dz_fImMJw4-204" style="edgeStyle=orthogonalEdgeStyle;rounded=0;orthogonalLoop=1;jettySize=auto;html=1;entryX=0.5;entryY=0;entryDx=0;entryDy=0;entryPerimeter=0;" edge="1" parent="WYVrjqTcu7dz_fImMJw4-200" source="WYVrjqTcu7dz_fImMJw4-148" target="WYVrjqTcu7dz_fImMJw4-203">
          <mxGeometry relative="1" as="geometry" />
        </mxCell>
        <mxCell id="WYVrjqTcu7dz_fImMJw4-205" style="edgeStyle=orthogonalEdgeStyle;rounded=0;orthogonalLoop=1;jettySize=auto;html=1;entryX=0.995;entryY=0.63;entryDx=0;entryDy=0;entryPerimeter=0;" edge="1" parent="WYVrjqTcu7dz_fImMJw4-200" source="WYVrjqTcu7dz_fImMJw4-203" target="WYVrjqTcu7dz_fImMJw4-157">
          <mxGeometry relative="1" as="geometry" />
        </mxCell>
        <mxCell id="WYVrjqTcu7dz_fImMJw4-208" style="edgeStyle=orthogonalEdgeStyle;rounded=0;orthogonalLoop=1;jettySize=auto;html=1;" edge="1" parent="1" source="WYVrjqTcu7dz_fImMJw4-201" target="WYVrjqTcu7dz_fImMJw4-148">
          <mxGeometry relative="1" as="geometry" />
        </mxCell>
        <mxCell id="WYVrjqTcu7dz_fImMJw4-201" value="FRONT-END" style="ellipse;shape=cloud;whiteSpace=wrap;html=1;" vertex="1" parent="1">
          <mxGeometry x="-469" y="-1150" width="120" height="80" as="geometry" />
        </mxCell>
        <mxCell id="WYVrjqTcu7dz_fImMJw4-206" style="edgeStyle=orthogonalEdgeStyle;rounded=0;orthogonalLoop=1;jettySize=auto;html=1;" edge="1" parent="1" source="WYVrjqTcu7dz_fImMJw4-202" target="WYVrjqTcu7dz_fImMJw4-201">
          <mxGeometry relative="1" as="geometry" />
        </mxCell>
        <mxCell id="WYVrjqTcu7dz_fImMJw4-202" value="UsuÃ¡rio" style="shape=umlActor;verticalLabelPosition=bottom;verticalAlign=top;html=1;outlineConnect=0;" vertex="1" parent="1">
          <mxGeometry x="-620" y="-1140" width="30" height="60" as="geometry" />
        </mxCell>
      </root>
    </mxGraphModel>
  </diagram>
</mxfile>
